<?xml version="1.0" encoding="UTF-8"?>
<svg version="1.1" xmlns="http://www.w3.org/2000/svg" width="50" height="50">
<path d="M0 0 C0 16.5 0 33 0 50 C-4.57256902 50 -7.90834313 49.99470315 -12.20703125 49.16015625 C-13.58084961 48.8962207 -13.58084961 48.8962207 -14.98242188 48.62695312 C-15.91634766 48.44068359 -16.85027344 48.25441406 -17.8125 48.0625 C-18.76576172 47.88009766 -19.71902344 47.69769531 -20.70117188 47.50976562 C-27.7140498 46.1429751 -27.7140498 46.1429751 -30 45 C-30 31.8 -30 18.6 -30 5 C-8.33333333 -0 -8.33333333 -0 0 0 Z M-22 16 C-21.68804687 16.51949219 -21.37609375 17.03898437 -21.0546875 17.57421875 C-17.84344423 23.32681018 -17.84344423 23.32681018 -18.625 26.6875 C-19.07875 27.450625 -19.5325 28.21375 -20 29 C-20.37125 29.928125 -20.7425 30.85625 -21.125 31.8125 C-21.41375 32.534375 -21.7025 33.25625 -22 34 C-21.01 34 -20.02 34 -19 34 C-16.65405228 30.79552584 -16.65405228 30.79552584 -16 27 C-15.34 27 -14.68 27 -14 27 C-13.7525 27.969375 -13.505 28.93875 -13.25 29.9375 C-12.8375 30.948125 -12.425 31.95875 -12 33 C-9.96756452 33.96877057 -9.96756452 33.96877057 -8 34 C-8.28875 33.278125 -8.5775 32.55625 -8.875 31.8125 C-9.24625 30.884375 -9.6175 29.95625 -10 29 C-10.45375 28.195625 -10.9075 27.39125 -11.375 26.5625 C-12 24 -12 24 -10.125 20.8125 C-9.42375 19.884375 -8.7225 18.95625 -8 18 C-8 17.34 -8 16.68 -8 16 C-9.96756452 16.03122943 -9.96756452 16.03122943 -12 17 C-13.3045656 19.99615946 -13.3045656 19.99615946 -14 23 C-14.66 23 -15.32 23 -16 23 C-16.66 20.69 -17.32 18.38 -18 16 C-19.32 16 -20.64 16 -22 16 Z " fill="#000000" transform="translate(30,0)"/>
<path d="M0 0 C5.61 0 11.22 0 17 0 C17 12.54 17 25.08 17 38 C11.39 38 5.78 38 0 38 C0 35.69 0 33.38 0 31 C0.66 31 1.32 31 2 31 C2 30.34 2 29.68 2 29 C1.34 29 0.68 29 0 29 C0 27.02 0 25.04 0 23 C0.66 23 1.32 23 2 23 C2 22.34 2 21.68 2 21 C1.34 21 0.68 21 0 21 C0 19.35 0 17.7 0 16 C0.66 16 1.32 16 2 16 C2 15.34 2 14.68 2 14 C1.34 14 0.68 14 0 14 C0 12.35 0 10.7 0 9 C0.66 9 1.32 9 2 9 C2 8.34 2 7.68 2 7 C1.34 7 0.68 7 0 7 C0 4.69 0 2.38 0 0 Z M4 7 C4 7.66 4 8.32 4 9 C6.64 9 9.28 9 12 9 C12 8.34 12 7.68 12 7 C9.36 7 6.72 7 4 7 Z M4 14 C4 14.66 4 15.32 4 16 C6.64 16 9.28 16 12 16 C12 15.34 12 14.68 12 14 C9.36 14 6.72 14 4 14 Z M4 21 C4 21.66 4 22.32 4 23 C6.64 23 9.28 23 12 23 C12 22.34 12 21.68 12 21 C9.36 21 6.72 21 4 21 Z M4 29 C4 29.66 4 30.32 4 31 C6.64 31 9.28 31 12 31 C12 30.34 12 29.68 12 29 C9.36 29 6.72 29 4 29 Z " fill="#000000" transform="translate(32,6)"/>
</svg>
