<?xml version="1.0" encoding="UTF-8"?>
<svg version="1.1" xmlns="http://www.w3.org/2000/svg" width="50" height="50">
<path d="M0 0 C12.54 0 25.08 0 38 0 C38 7.92 38 15.84 38 24 C36.68 24 35.36 24 34 24 C34 25.32 34 26.64 34 28 C34.66 28 35.32 28 36 28 C36 27.34 36 26.68 36 26 C36.66 26 37.32 26 38 26 C38 26.66 38 27.32 38 28 C39.32 28.66 40.64 29.32 42 30 C42 30.99 42 31.98 42 33 C41.01 33 40.02 33 39 33 C39 32.34 39 31.68 39 31 C37.68 31 36.36 31 35 31 C35 31.99 35 32.98 35 34 C35.94875 34.28875 36.8975 34.5775 37.875 34.875 C41 36 41 36 43 38 C43.25 41 43.25 41 43 44 C42.34 44.66 41.68 45.32 41 46 C40.01 46 39.02 46 38 46 C38 46.66 38 47.32 38 48 C37.34 48 36.68 48 36 48 C36 47.34 36 46.68 36 46 C24.12 46 12.24 46 0 46 C0 30.82 0 15.64 0 0 Z M7 9 C7 9.66 7 10.32 7 11 C11.95 11 16.9 11 22 11 C22 10.34 22 9.68 22 9 C17.05 9 12.1 9 7 9 Z M28 9 C28 9.66 28 10.32 28 11 C28.99 11 29.98 11 31 11 C31 10.34 31 9.68 31 9 C30.01 9 29.02 9 28 9 Z M7 15 C7 15.66 7 16.32 7 17 C10.63 17 14.26 17 18 17 C18 16.34 18 15.68 18 15 C14.37 15 10.74 15 7 15 Z M28 15 C28 15.66 28 16.32 28 17 C28.99 17 29.98 17 31 17 C31 16.34 31 15.68 31 15 C30.01 15 29.02 15 28 15 Z M7 21 C7 21.66 7 22.32 7 23 C11.95 23 16.9 23 22 23 C22 22.34 22 21.68 22 21 C17.05 21 12.1 21 7 21 Z M28 21 C28 21.66 28 22.32 28 23 C28.99 23 29.98 23 31 23 C31 22.34 31 21.68 31 21 C30.01 21 29.02 21 28 21 Z M7 27 C7 27.66 7 28.32 7 29 C10.63 29 14.26 29 18 29 C18 28.34 18 27.68 18 27 C14.37 27 10.74 27 7 27 Z M28 27 C28 27.66 28 28.32 28 29 C29.98 29 31.96 29 34 29 C31.18490007 26.7226499 31.18490007 26.7226499 28 27 Z M31 30 C31 31.65 31 33.3 31 35 C31.33 35 31.66 35 32 35 C32 33.35 32 31.7 32 30 C31.67 30 31.34 30 31 30 Z M29 38 C29.33 39.65 29.66 41.3 30 43 C30.33 42.01 30.66 41.02 31 40 C31.99 40 32.98 40 34 40 C34.33 40.99 34.66 41.98 35 43 C36.65 43 38.3 43 40 43 C40 41.68 40 40.36 40 39 C35.87831311 37.37049588 33.29299643 36.73735399 29 38 Z " fill="#000000" transform="translate(6,2)"/>
</svg>
